<svg width="47" height="47" viewBox="0 0 47 47" fill="none" xmlns="http://www.w3.org/2000/svg">
<path d="M11.9167 37.2087H17.7917V25.4587H29.5417V37.2087H35.4167V19.5837L23.6667 10.7712L11.9167 19.5837V37.2087ZM11.9167 41.1253C10.8396 41.1253 9.91721 40.7415 9.14954 39.9738C8.38188 39.2062 7.9987 38.2844 8 37.2087V19.5837C8 18.9635 8.13904 18.376 8.41713 17.8212C8.69521 17.2663 9.07839 16.8094 9.56667 16.4503L21.3167 7.63783C21.6757 7.37671 22.051 7.18088 22.4427 7.05033C22.8344 6.91977 23.2424 6.85449 23.6667 6.85449C24.091 6.85449 24.499 6.91977 24.8906 7.05033C25.2823 7.18088 25.6576 7.37671 26.0167 7.63783L37.7667 16.4503C38.2563 16.8094 38.6401 17.2663 38.9182 17.8212C39.1963 18.376 39.3346 18.9635 39.3333 19.5837V37.2087C39.3333 38.2857 38.9495 39.2081 38.1818 39.9758C37.4142 40.7434 36.4924 41.1266 35.4167 41.1253H25.625V29.3753H21.7083V41.1253H11.9167Z" fill="#6038FF"/>
</svg>
