<svg width="47" height="47" viewBox="0 0 47 47" fill="none" xmlns="http://www.w3.org/2000/svg">
<path d="M18.3828 6.24186H9.57031C8.88862 6.24186 8.23485 6.51266 7.75283 6.99469C7.2708 7.47671 7 8.13048 7 8.81217V38.1872C7 38.8689 7.2708 39.5226 7.75283 40.0047C8.23485 40.4867 8.88862 40.7575 9.57031 40.7575H18.3828C18.7204 40.7575 19.0546 40.691 19.3664 40.5618C19.6783 40.4327 19.9616 40.2433 20.2003 40.0047C20.439 39.766 20.6283 39.4826 20.7575 39.1708C20.8866 38.8589 20.9531 38.5247 20.9531 38.1872V8.81217C20.9531 8.47463 20.8866 8.1404 20.7575 7.82856C20.6283 7.51671 20.439 7.23336 20.2003 6.99469C19.9616 6.75601 19.6783 6.56668 19.3664 6.43751C19.0546 6.30834 18.7204 6.24186 18.3828 6.24186ZM9.20313 14.32H18.75V32.6794H9.20313V14.32ZM9.57031 8.44498H18.3828C18.4802 8.44498 18.5736 8.48367 18.6425 8.55253C18.7113 8.62139 18.75 8.71479 18.75 8.81217V12.1169H9.20313V8.81217C9.20313 8.71479 9.24181 8.62139 9.31067 8.55253C9.37953 8.48367 9.47293 8.44498 9.57031 8.44498ZM18.3828 38.5544H9.57031C9.47293 38.5544 9.37953 38.5157 9.31067 38.4468C9.24181 38.378 9.20313 38.2846 9.20313 38.1872V34.8825H18.75V38.1872C18.75 38.2846 18.7113 38.378 18.6425 38.4468C18.5736 38.5157 18.4802 38.5544 18.3828 38.5544ZM41.4605 35.8005L35.3671 6.82202C35.2983 6.49027 35.1646 6.1754 34.9737 5.8955C34.7828 5.61561 34.5385 5.37621 34.2547 5.19109C33.971 5.00596 33.6535 4.87876 33.3204 4.81679C32.9873 4.75483 32.6452 4.75932 32.3139 4.83002L23.7199 6.67698C23.0548 6.82317 22.4741 7.22574 22.104 7.79733C21.7338 8.36892 21.6039 9.06342 21.7426 9.73014L27.8361 38.7031C27.9054 39.036 28.04 39.3518 28.2323 39.6323C28.4245 39.9128 28.6705 40.1523 28.956 40.3371C29.3691 40.6074 29.8521 40.7515 30.3458 40.752C30.531 40.753 30.7157 40.7333 30.8966 40.6932L39.4906 38.8481C40.1532 38.7002 40.7311 38.2978 41.0996 37.7277C41.4682 37.1575 41.5978 36.4653 41.4605 35.8005ZM26.2571 20.5034L35.5709 18.5022L38.1632 30.8324L28.8477 32.8281L26.2571 20.5034ZM25.0399 14.7092L34.3555 12.7025L35.1174 16.3395L25.8037 18.3407L25.0399 14.7092ZM24.1844 8.8342L32.7766 6.98909C32.8022 6.9866 32.828 6.9866 32.8537 6.98909C32.9223 6.98917 32.9894 7.00961 33.0464 7.04784C33.0886 7.07469 33.1249 7.10987 33.153 7.15123C33.1811 7.19258 33.2004 7.23924 33.2098 7.28834L33.8983 10.56L24.5864 12.5465L23.8998 9.28217C23.8784 9.1846 23.8962 9.0825 23.9494 8.99798C24.0027 8.91345 24.0871 8.8533 24.1844 8.83053V8.8342ZM39.0206 36.7037L30.4266 38.5544C30.3806 38.5646 30.333 38.5654 30.2866 38.5569C30.2402 38.5484 30.1961 38.5307 30.1567 38.5048C30.1145 38.4779 30.0783 38.4428 30.0502 38.4014C30.0221 38.36 30.0027 38.3134 29.9933 38.2643L29.3048 34.9926L38.6167 32.9915L39.3125 36.2466C39.3233 36.2955 39.3243 36.3461 39.3154 36.3955C39.3066 36.4448 39.2881 36.4919 39.2609 36.5341C39.2338 36.5762 39.1986 36.6126 39.1573 36.6411C39.1161 36.6696 39.0696 36.6896 39.0206 36.7001V36.7037Z" fill="#6038FF"/>
</svg>
