<svg width="47" height="47" viewBox="0 0 47 47" fill="none" xmlns="http://www.w3.org/2000/svg">
<path d="M6.95833 32.3128V39.167C6.95833 40.2058 7.37098 41.202 8.1055 41.9365C8.84002 42.671 9.83624 43.0837 10.875 43.0837H34.375C35.4138 43.0837 36.41 42.671 37.1445 41.9365C37.879 41.202 38.2917 40.2058 38.2917 39.167V32.3128M5 27.417V25.4587C5 24.4199 5.41265 23.4237 6.14716 22.6892C6.88168 21.9546 7.8779 21.542 8.91667 21.542H36.3333C37.3721 21.542 38.3683 21.9546 39.1028 22.6892C39.8374 23.4237 40.25 24.4199 40.25 25.4587V27.417M22.625 15.667V21.542M22.625 15.667C25.0964 15.667 26.5417 13.7713 26.5417 10.5264C26.5417 7.28141 22.625 3.91699 22.625 3.91699C22.625 3.91699 18.7083 7.28141 18.7083 10.5264C18.7083 13.7713 20.1536 15.667 22.625 15.667Z" stroke="#6038FF" stroke-width="3.5" stroke-linecap="round" stroke-linejoin="round"/>
<path d="M5 27.417C5 28.9751 5.61897 30.4695 6.72075 31.5712C7.82252 32.673 9.31685 33.292 10.875 33.292C12.4331 33.292 13.9275 32.673 15.0293 31.5712C16.131 30.4695 16.75 28.9751 16.75 27.417C16.75 28.9751 17.369 30.4695 18.4707 31.5712C19.5725 32.673 21.0669 33.292 22.625 33.292C24.1831 33.292 25.6775 32.673 26.7793 31.5712C27.881 30.4695 28.5 28.9751 28.5 27.417C28.5 28.9751 29.119 30.4695 30.2207 31.5712C31.3225 32.673 32.8169 33.292 34.375 33.292C35.9331 33.292 37.4275 32.673 38.5293 31.5712C39.631 30.4695 40.25 28.9751 40.25 27.417" stroke="#6038FF" stroke-width="3.5" stroke-linecap="round" stroke-linejoin="round"/>
</svg>
