<svg width="47" height="47" viewBox="0 0 47 47" fill="none" xmlns="http://www.w3.org/2000/svg">
<path d="M7.91667 41.1253C6.83959 41.1253 5.91721 40.7415 5.14954 39.9738C4.38188 39.2062 3.9987 38.2844 4 37.2087V15.667C4 14.5899 4.38384 13.6675 5.1515 12.8999C5.91917 12.1322 6.84089 11.749 7.91667 11.7503H15.75V7.83366C15.75 6.75658 16.1338 5.8342 16.9015 5.06654C17.6692 4.29887 18.5909 3.91569 19.6667 3.917H27.5C28.5771 3.917 29.4995 4.30083 30.2671 5.0685C31.0348 5.83616 31.418 6.75788 31.4167 7.83366V11.7503H39.25C40.3271 11.7503 41.2495 12.1342 42.0171 12.9018C42.7848 13.6695 43.168 14.5912 43.1667 15.667V37.2087C43.1667 38.2857 42.7828 39.2081 42.0152 39.9758C41.2475 40.7435 40.3258 41.1266 39.25 41.1253H7.91667ZM7.91667 37.2087H39.25V15.667H7.91667V37.2087ZM19.6667 11.7503H27.5V7.83366H19.6667V11.7503Z" fill="#6038FF"/>
</svg>
