<svg width="37" height="37" viewBox="0 0 37 37" fill="none" xmlns="http://www.w3.org/2000/svg">
<g clip-path="url(#clip0_1907_9)">
<g filter="url(#filter0_d_1907_9)">
<path fill-rule="evenodd" clip-rule="evenodd" d="M34.6852 18.4988C34.6852 22.9677 33.337 27.0135 30.6406 29.9422V32.9531L30.0625 34.6875H28.3281L26.9106 32.7982C24.6154 34.0018 21.8115 34.6852 18.4988 34.6852C17.3125 34.6889 16.1278 34.5938 14.9572 34.4008L13.875 35.8438L12.1406 36.4219L11.5625 35.8438L10.4062 34.6875V32.9601C9.96687 32.7427 9.54369 32.5068 9.139 32.2524L8.67187 32.9531L6.9375 33.5312L5.78125 31.7969V29.2762C3.46875 26.4134 2.3125 22.6371 2.3125 18.4988C2.3125 9.55987 7.70525 2.3125 18.4988 2.3125C29.2913 2.3125 34.6852 9.55987 34.6852 18.4988Z" fill="url(#paint0_radial_1907_9)"/>
</g>
<path d="M10.4062 23.125C13.5991 23.125 16.1875 20.5366 16.1875 17.3438C16.1875 14.1509 13.5991 11.5625 10.4062 11.5625C7.21335 11.5625 4.625 14.1509 4.625 17.3438C4.625 20.5366 7.21335 23.125 10.4062 23.125Z" fill="url(#paint1_radial_1907_9)"/>
<path d="M22.5469 23.125C25.4205 23.125 27.75 20.7955 27.75 17.9219C27.75 15.0483 25.4205 12.7188 22.5469 12.7188C19.6733 12.7188 17.3438 15.0483 17.3438 17.9219C17.3438 20.7955 19.6733 23.125 22.5469 23.125Z" fill="url(#paint2_radial_1907_9)"/>
<path d="M12.1406 20.8125C13.5206 20.8125 14.844 20.2643 15.8198 19.2885C16.7956 18.3128 17.3438 16.9893 17.3438 15.6094C17.3438 14.2294 16.7956 12.906 15.8198 11.9302C14.844 10.9544 13.5206 10.4062 12.1406 10.4062C10.7607 10.4062 9.43724 10.9544 8.46146 11.9302C7.48568 12.906 6.9375 14.2294 6.9375 15.6094C6.9375 16.9893 7.48568 18.3128 8.46146 19.2885C9.43724 20.2643 10.7607 20.8125 12.1406 20.8125ZM24.8594 20.8125C26.2393 20.8125 27.5628 20.2643 28.5385 19.2885C29.5143 18.3128 30.0625 16.9893 30.0625 15.6094C30.0625 14.2294 29.5143 12.906 28.5385 11.9302C27.5628 10.9544 26.2393 10.4062 24.8594 10.4062C23.4794 10.4062 22.156 10.9544 21.1802 11.9302C20.2044 12.906 19.6562 14.2294 19.6562 15.6094C19.6562 16.9893 20.2044 18.3128 21.1802 19.2885C22.156 20.2643 23.4794 20.8125 24.8594 20.8125Z" fill="white"/>
<path d="M13.875 18.5C14.4883 18.5 15.0765 18.2564 15.5102 17.8227C15.9439 17.389 16.1875 16.8008 16.1875 16.1875C16.1875 15.5742 15.9439 14.986 15.5102 14.5523C15.0765 14.1186 14.4883 13.875 13.875 13.875C13.2617 13.875 12.6735 14.1186 12.2398 14.5523C11.8061 14.986 11.5625 15.5742 11.5625 16.1875C11.5625 16.8008 11.8061 17.389 12.2398 17.8227C12.6735 18.2564 13.2617 18.5 13.875 18.5Z" fill="url(#paint3_linear_1907_9)"/>
<path d="M23.125 18.5C23.7383 18.5 24.3265 18.2564 24.7602 17.8227C25.1939 17.389 25.4375 16.8008 25.4375 16.1875C25.4375 15.5742 25.1939 14.986 24.7602 14.5523C24.3265 14.1186 23.7383 13.875 23.125 13.875C22.5117 13.875 21.9235 14.1186 21.4898 14.5523C21.0561 14.986 20.8125 15.5742 20.8125 16.1875C20.8125 16.8008 21.0561 17.389 21.4898 17.8227C21.9235 18.2564 22.5117 18.5 23.125 18.5Z" fill="url(#paint4_linear_1907_9)"/>
<path d="M34.5407 18.4988C34.5407 22.94 33.2006 26.9487 30.5331 29.8463C27.8668 32.7415 23.8615 34.5407 18.4988 34.5407C13.1362 34.5407 9.13091 32.7415 6.46459 29.8463C3.79713 26.9487 2.45703 22.94 2.45703 18.4988C2.45703 14.0577 3.79713 10.0478 6.46459 7.15141C9.13091 4.25616 13.1362 2.45703 18.4988 2.45703C23.8615 2.45703 27.8668 4.25616 30.5331 7.15141C33.2006 10.0478 34.5407 14.0577 34.5407 18.4988Z" fill="url(#paint5_linear_1907_9)" stroke="url(#paint6_radial_1907_9)" stroke-width="0.25"/>
<path d="M23.125 21.9688H13.875C11.9593 21.9688 10.4062 23.5218 10.4062 25.4375C10.4062 27.3532 11.9593 28.9062 13.875 28.9062H23.125C25.0407 28.9062 26.5938 27.3532 26.5938 25.4375C26.5938 23.5218 25.0407 21.9688 23.125 21.9688Z" fill="#3A3E67"/>
<path fill-rule="evenodd" clip-rule="evenodd" d="M23.1254 21.9688H13.8754C13.2905 21.9684 12.7149 22.1162 12.2024 22.3982C11.6899 22.6802 11.2571 23.0874 10.9443 23.5817L11.1675 24.2523C11.2827 24.5975 11.5036 24.8977 11.7989 25.1104C12.0942 25.3231 12.4489 25.4375 12.8128 25.4375H24.188C24.5521 25.4375 24.9069 25.3229 25.2022 25.11C25.4975 24.897 25.7183 24.5966 25.8334 24.2512L26.0565 23.5817C25.7437 23.0874 25.3109 22.6802 24.7984 22.3982C24.2859 22.1162 23.7104 21.9684 23.1254 21.9688Z" fill="url(#paint7_linear_1907_9)"/>
<path fill-rule="evenodd" clip-rule="evenodd" d="M13.875 28.9063H23.125C23.4291 28.9063 23.7239 28.8669 24.006 28.7929C24.2893 28.6854 24.5395 28.5055 24.7316 28.2712C24.9237 28.0369 25.0511 27.7563 25.101 27.4575L25.3253 26.1104C25.3391 26.0276 25.3347 25.9427 25.3123 25.8617C25.2899 25.7807 25.2502 25.7056 25.1958 25.6415C25.1414 25.5775 25.0737 25.526 24.9975 25.4908C24.9212 25.4556 24.8382 25.4374 24.7541 25.4375H12.2447C12.1608 25.4377 12.0781 25.4561 12.0021 25.4915C11.9261 25.5269 11.8587 25.5784 11.8046 25.6424C11.7505 25.7064 11.7109 25.7814 11.6887 25.8622C11.6664 25.9431 11.662 26.0278 11.6758 26.1104L11.9001 27.4575C12.0042 28.0795 12.432 28.579 12.9928 28.7929C13.2749 28.8669 13.5709 28.9063 13.8761 28.9063H13.875Z" fill="url(#paint8_linear_1907_9)"/>
<path d="M12.1406 6.35938C12.1406 6.35938 11.5625 9.82812 7.51562 9.82812" stroke="url(#paint9_linear_1907_9)" stroke-width="1.25" stroke-linecap="round" stroke-linejoin="round"/>
<path d="M12.1406 6.35938C12.1406 6.35938 11.5625 9.82812 7.51562 9.82812" stroke="url(#paint10_radial_1907_9)" stroke-width="1.25" stroke-linecap="round" stroke-linejoin="round"/>
<path d="M24.8594 6.35938C24.8594 6.35938 25.4375 9.82812 29.4844 9.82812" stroke="url(#paint11_radial_1907_9)" stroke-width="1.25" stroke-linecap="round" stroke-linejoin="round"/>
</g>
<defs>
<filter id="filter0_d_1907_9" x="0.8125" y="1.8125" width="37.373" height="39.1094" filterUnits="userSpaceOnUse" color-interpolation-filters="sRGB">
<feFlood flood-opacity="0" result="BackgroundImageFix"/>
<feColorMatrix in="SourceAlpha" type="matrix" values="0 0 0 0 0 0 0 0 0 0 0 0 0 0 0 0 0 0 127 0" result="hardAlpha"/>
<feOffset dx="1" dy="2"/>
<feGaussianBlur stdDeviation="1.25"/>
<feComposite in2="hardAlpha" operator="out"/>
<feColorMatrix type="matrix" values="0 0 0 0 0 0 0 0 0 0 0 0 0 0 0 0 0 0 0.16 0"/>
<feBlend mode="normal" in2="BackgroundImageFix" result="effect1_dropShadow_1907_9"/>
<feBlend mode="normal" in="SourceGraphic" in2="effect1_dropShadow_1907_9" result="shape"/>
</filter>
<radialGradient id="paint0_radial_1907_9" cx="0" cy="0" r="1" gradientUnits="userSpaceOnUse" gradientTransform="translate(30.6406 12.1406) rotate(136.548) scale(30.262 47.3309)">
<stop stop-color="#BCDFFF"/>
<stop offset="0.457" stop-color="#BDB5FF"/>
<stop offset="1" stop-color="#AE89FF"/>
</radialGradient>
<radialGradient id="paint1_radial_1907_9" cx="0" cy="0" r="1" gradientUnits="userSpaceOnUse" gradientTransform="translate(13.2969 13.875) rotate(132.51) scale(9.41119 4.87092)">
<stop offset="0.309" stop-color="#765FD7"/>
<stop offset="1" stop-color="#765FD7" stop-opacity="0"/>
</radialGradient>
<radialGradient id="paint2_radial_1907_9" cx="0" cy="0" r="1" gradientUnits="userSpaceOnUse" gradientTransform="translate(25.1484 14.8) rotate(132.51) scale(8.47008 4.38383)">
<stop offset="0.053" stop-color="#765FD7"/>
<stop offset="1" stop-color="#765FD7" stop-opacity="0"/>
</radialGradient>
<linearGradient id="paint3_linear_1907_9" x1="23.8361" y1="13.875" x2="23.0406" y2="18.5347" gradientUnits="userSpaceOnUse">
<stop stop-color="#553B3E"/>
<stop offset="1" stop-color="#3D2432"/>
</linearGradient>
<linearGradient id="paint4_linear_1907_9" x1="23.8361" y1="13.875" x2="23.0406" y2="18.5347" gradientUnits="userSpaceOnUse">
<stop stop-color="#553B3E"/>
<stop offset="1" stop-color="#3D2432"/>
</linearGradient>
<linearGradient id="paint5_linear_1907_9" x1="18.4988" y1="2.3125" x2="18.4988" y2="12.7187" gradientUnits="userSpaceOnUse">
<stop stop-color="#5DA0FF"/>
<stop offset="1" stop-color="#5DA0FF" stop-opacity="0"/>
</linearGradient>
<radialGradient id="paint6_radial_1907_9" cx="0" cy="0" r="1" gradientUnits="userSpaceOnUse" gradientTransform="translate(18.5 32.9531) rotate(-90) scale(17.9219)">
<stop stop-color="#F4BCFF"/>
<stop offset="1" stop-color="#F4BCFF" stop-opacity="0"/>
</radialGradient>
<linearGradient id="paint7_linear_1907_9" x1="20.6591" y1="24.2813" x2="20.6591" y2="25.4375" gradientUnits="userSpaceOnUse">
<stop stop-color="#FFF2FF"/>
<stop offset="0.717" stop-color="#FFECFF"/>
<stop offset="0.988" stop-color="#383B64"/>
</linearGradient>
<linearGradient id="paint8_linear_1907_9" x1="20.779" y1="25.4375" x2="20.779" y2="31.2188" gradientUnits="userSpaceOnUse">
<stop stop-color="#FFF7FF"/>
<stop offset="1" stop-color="#FFE1FF"/>
</linearGradient>
<linearGradient id="paint9_linear_1907_9" x1="10.9844" y1="5.78125" x2="10.9844" y2="7.51562" gradientUnits="userSpaceOnUse">
<stop offset="0.03" stop-color="#524049"/>
<stop offset="1" stop-color="#4A2C42"/>
</linearGradient>
<radialGradient id="paint10_radial_1907_9" cx="0" cy="0" r="1" gradientUnits="userSpaceOnUse" gradientTransform="translate(8.09375 5.78125) rotate(54.4623) scale(4.97322)">
<stop offset="0.542" stop-color="#493032"/>
<stop offset="0.807" stop-color="#5E445A"/>
<stop offset="0.955" stop-color="#4A2C42"/>
</radialGradient>
<radialGradient id="paint11_radial_1907_9" cx="0" cy="0" r="1" gradientUnits="userSpaceOnUse" gradientTransform="translate(28.9057 5.78227) rotate(125.538) scale(4.97322)">
<stop stop-color="#C2B4B5"/>
<stop offset="0.887" stop-color="#462B45"/>
<stop offset="1" stop-color="#4A2C42"/>
</radialGradient>
<clipPath id="clip0_1907_9">
<rect width="37" height="37" fill="white"/>
</clipPath>
</defs>
</svg>
